<svg width="25" height="37" viewBox="0 0 25 37" fill="none" xmlns="http://www.w3.org/2000/svg">
<g clip-path="url(#clip0_117_38)">
<path d="M6.63645 36.7468C9.94779 36.7468 12.6353 34.0588 12.6353 30.7468V24.7468H6.63645C3.32511 24.7468 0.63765 27.4348 0.63765 30.7468C0.63765 34.0588 3.32511 36.7468 6.63645 36.7468Z" fill="#0ACF83"/>
<path d="M0.63765 18.7469C0.63765 15.4349 3.32511 12.7469 6.63645 12.7469H12.6353V24.7469H6.63645C3.32511 24.7469 0.63765 22.0589 0.63765 18.7469Z" fill="#A259FF"/>
<path d="M0.637772 6.74683C0.637772 3.43483 3.32523 0.746826 6.63657 0.746826H12.6354V12.7468H6.63657C3.32523 12.7468 0.637772 10.0588 0.637772 6.74683Z" fill="#F24E1E"/>
<path d="M12.6353 0.746826H18.6341C21.9454 0.746826 24.6329 3.43483 24.6329 6.74683C24.6329 10.0588 21.9454 12.7468 18.6341 12.7468H12.6353V0.746826Z" fill="#FF7262"/>
<path d="M24.6329 18.7469C24.6329 22.0589 21.9454 24.7469 18.6341 24.7469C15.3228 24.7469 12.6353 22.0589 12.6353 18.7469C12.6353 15.4349 15.3228 12.7469 18.6341 12.7469C21.9454 12.7469 24.6329 15.4349 24.6329 18.7469Z" fill="#1ABCFE"/>
</g>
<defs>
<clipPath id="clip0_117_38">
<rect width="24" height="36" fill="white" transform="translate(0.635254 0.746826)"/>
</clipPath>
</defs>
</svg>
