<svg width="38" height="37" viewBox="0 0 38 37" fill="none" xmlns="http://www.w3.org/2000/svg">
<g opacity="0.99494">
<path d="M10.841 26.2437L13.044 23.5386L5.95206 17.9639L13.044 12.3891L10.841 9.684L2.02892 16.6112C1.82246 16.7736 1.65578 16.9793 1.54122 17.2135C1.42667 17.4476 1.36719 17.7041 1.36719 17.9639C1.36719 18.2237 1.42667 18.4802 1.54122 18.7143C1.65578 18.9484 1.82246 19.1541 2.02892 19.3165L10.841 26.2437ZM27.1433 9.684L24.9403 12.3891L32.0323 17.9639L24.9403 23.5386L27.1433 26.2437L35.9555 19.3165C36.1619 19.1541 36.3285 18.9484 36.443 18.7143C36.5577 18.4802 36.6172 18.2237 36.6172 17.9639C36.6172 17.7041 36.5577 17.4476 36.443 17.2135C36.3285 16.9793 36.1619 16.7736 35.9555 16.6112L27.1433 9.684ZM24.2371 2.75148L17.1874 33.9244L13.7455 33.1729L20.7951 1.99988L24.2371 2.75148Z" fill="white"/>
</g>
</svg>
