<svg width="68" height="59" viewBox="0 0 68 59" fill="none" xmlns="http://www.w3.org/2000/svg">
<path d="M46.9289 11.8553C58.1681 17.076 61.6592 29.2104 54.7838 38.9434C47.9084 48.6765 33.2343 52.373 21.9952 47.1523C10.756 41.9316 7.26491 29.7972 14.1403 20.0642C21.0157 10.3311 35.6898 6.63459 46.9289 11.8553Z" stroke="#F1DDDD"/>
<mask id="mask0_1_34" style="mask-type:alpha" maskUnits="userSpaceOnUse" x="21" y="19" width="27" height="21">
<rect width="21.4222" height="24.214" transform="matrix(-0.0197539 -0.929982 1.06173 -0.0304235 21.866 39.7347)" fill="#D9D9D9"/>
</mask>
<g mask="url(#mask0_1_34)">
<path d="M43.0785 29.1599L41.6039 30.3857L35.5065 25.9091L35.7211 36.0155L33.5787 36.0769L33.3641 25.9705L27.4641 30.7909L25.9393 29.651L34.3678 22.7647L43.0785 29.1599Z" fill="#EBE8E8"/>
</g>
</svg>
